# Blender v2.79 (sub 0) OBJ File: ''
# www.blender.org
mtllib light.mtl
o light
v -0.201754 0.789458 0.201754
v -0.201754 0.589458 -0.198246
v -0.201754 0.589458 0.201754
v -0.201754 0.789459 -0.198246
v -0.101754 0.589458 0.101754
v -0.101754 -0.010541 -0.098246
v -0.101754 -0.010541 0.101754
v -0.101754 0.589458 -0.098246
v -0.101754 0.889459 0.101754
v -0.101754 0.789459 -0.098246
v -0.101754 0.789459 0.101754
v -0.101754 0.889459 0.001754
v -0.101754 0.889459 -0.098246
v -0.101754 0.989459 0.001754
v -0.101754 0.989459 -0.098246
v -0.001754 0.989459 0.101754
v -0.001754 0.889459 0.001754
v -0.001754 0.889459 0.101754
v -0.001754 0.989459 0.001754
v -0.001754 0.889459 0.001754
v -0.001754 0.889459 -0.098246
v -0.001754 0.989459 0.001754
v -0.001754 0.989459 -0.098246
v 0.098246 -0.010541 0.101754
v 0.098246 -0.010541 -0.098246
v 0.098246 0.589458 0.101754
v 0.098246 0.589458 -0.098246
v 0.098246 0.789459 0.101754
v 0.098246 0.789459 0.001754
v 0.098246 0.889459 0.101754
v 0.098246 0.789459 -0.098246
v 0.098246 0.889459 0.001754
v 0.098246 0.889459 -0.098246
v 0.098246 0.989459 0.101754
v 0.098246 0.989459 0.001754
v 0.198246 0.589458 0.201754
v 0.198246 0.589458 -0.198246
v 0.198246 0.789458 0.201754
v 0.198246 0.789459 -0.198246
v 0.198246 0.589458 0.201754
v -0.201754 0.789458 0.201754
v -0.201754 0.589458 0.201754
v 0.198246 0.789458 0.201754
v -0.001754 0.889459 0.101754
v -0.101754 0.889459 0.101754
v -0.101754 0.789459 0.101754
v 0.098246 -0.010541 0.101754
v -0.101754 0.589458 0.101754
v -0.101754 -0.010541 0.101754
v 0.098246 0.589458 0.101754
v 0.098246 0.789459 0.101754
v 0.098246 0.889459 0.101754
v -0.001754 0.989459 0.101754
v 0.098246 0.989459 0.101754
v -0.001754 0.889459 0.001754
v -0.101754 0.989459 0.001754
v -0.101754 0.889459 0.001754
v -0.001754 0.989459 0.001754
v -0.001754 0.889459 0.001754
v -0.001754 0.989459 0.001754
v 0.098246 0.889459 0.001754
v 0.098246 0.989459 0.001754
v -0.101754 0.789459 -0.098246
v -0.101754 0.889459 -0.098246
v -0.001754 0.789459 -0.098246
v -0.101754 0.989459 -0.098246
v -0.001754 0.889459 -0.098246
v -0.001754 0.989459 -0.098246
v -0.101754 -0.010541 -0.098246
v -0.101754 0.589458 -0.098246
v 0.098246 -0.010541 -0.098246
v 0.098246 0.589458 -0.098246
v 0.098246 0.789459 -0.098246
v 0.098246 0.889459 -0.098246
v -0.201754 0.589458 -0.198246
v -0.201754 0.789459 -0.198246
v 0.198246 0.589458 -0.198246
v 0.198246 0.789459 -0.198246
v -0.101754 -0.010541 -0.098246
v 0.098246 -0.010541 0.101754
v -0.101754 -0.010541 0.101754
v 0.098246 -0.010541 -0.098246
v -0.101754 0.589458 0.101754
v 0.198246 0.589458 0.201754
v -0.201754 0.589458 0.201754
v 0.098246 0.589458 0.101754
v -0.101754 0.589458 -0.098246
v 0.098246 0.589458 -0.098246
v -0.201754 0.589458 -0.198246
v 0.198246 0.589458 -0.198246
v -0.201754 0.789458 0.201754
v 0.198246 0.789458 0.201754
v -0.101754 0.789459 0.101754
v 0.098246 0.789459 0.101754
v 0.098246 0.789459 0.001754
v -0.101754 0.789459 -0.098246
v 0.098246 0.789459 -0.098246
v -0.001754 0.789459 -0.098246
v -0.201754 0.789459 -0.198246
v 0.198246 0.789459 -0.198246
v -0.101754 0.889459 0.101754
v -0.001754 0.889459 0.101754
v -0.101754 0.889459 0.001754
v -0.001754 0.889459 0.001754
v 0.098246 0.889459 0.001754
v -0.001754 0.889459 -0.098246
v 0.098246 0.889459 -0.098246
v -0.001754 0.989459 0.101754
v 0.098246 0.989459 0.101754
v -0.001754 0.989459 0.001754
v 0.098246 0.989459 0.001754
v -0.101754 0.989459 0.001754
v -0.101754 0.989459 -0.098246
v -0.001754 0.989459 -0.098246
vt 0.876953 0.500000
vt 0.876953 0.500000
vt 0.876953 0.500000
vt 0.876953 0.500000
vt 0.876953 0.500000
vt 0.876953 0.500000
vt 0.876953 0.500000
vt 0.876953 0.500000
vt 0.845703 0.500000
vt 0.845703 0.500000
vt 0.845703 0.500000
vt 0.845703 0.500000
vt 0.845703 0.500000
vt 0.853516 0.500000
vt 0.853516 0.500000
vt 0.853516 0.500000
vt 0.853516 0.500000
vt 0.853516 0.500000
vt 0.853516 0.500000
vt 0.853516 0.500000
vt 0.853516 0.500000
vt 0.853516 0.500000
vt 0.853516 0.500000
vt 0.853516 0.500000
vt 0.853516 0.500000
vt 0.876953 0.500000
vt 0.876953 0.500000
vt 0.876953 0.500000
vt 0.876953 0.500000
vt 0.845703 0.500000
vt 0.845703 0.500000
vt 0.845703 0.500000
vt 0.853516 0.500000
vt 0.853516 0.500000
vt 0.853516 0.500000
vt 0.845703 0.500000
vt 0.853516 0.500000
vt 0.853516 0.500000
vt 0.853516 0.500000
vt 0.853516 0.500000
vt 0.876953 0.500000
vt 0.876953 0.500000
vt 0.876953 0.500000
vt 0.876953 0.500000
vt 0.876953 0.500000
vt 0.876953 0.500000
vt 0.876953 0.500000
vt 0.876953 0.500000
vt 0.845703 0.500000
vt 0.845703 0.500000
vt 0.845703 0.500000
vt 0.876953 0.500000
vt 0.876953 0.500000
vt 0.876953 0.500000
vt 0.876953 0.500000
vt 0.845703 0.500000
vt 0.853516 0.500000
vt 0.853516 0.500000
vt 0.853516 0.500000
vt 0.845703 0.500000
vt 0.853516 0.500000
vt 0.853516 0.500000
vt 0.853516 0.500000
vt 0.853516 0.500000
vt 0.853516 0.500000
vt 0.853516 0.500000
vt 0.853516 0.500000
vt 0.853516 0.500000
vt 0.853516 0.500000
vt 0.845703 0.500000
vt 0.845703 0.500000
vt 0.845703 0.500000
vt 0.853516 0.500000
vt 0.853516 0.500000
vt 0.853516 0.500000
vt 0.845703 0.500000
vt 0.853516 0.500000
vt 0.876953 0.500000
vt 0.876953 0.500000
vt 0.876953 0.500000
vt 0.876953 0.500000
vt 0.853516 0.500000
vt 0.853516 0.500000
vt 0.853516 0.500000
vt 0.876953 0.500000
vt 0.876953 0.500000
vt 0.876953 0.500000
vt 0.876953 0.500000
vt 0.876953 0.500000
vt 0.876953 0.500000
vt 0.876953 0.500000
vt 0.876953 0.500000
vt 0.876953 0.500000
vt 0.876953 0.500000
vt 0.876953 0.500000
vt 0.876953 0.500000
vt 0.876953 0.500000
vt 0.876953 0.500000
vt 0.876953 0.500000
vt 0.876953 0.500000
vt 0.876953 0.500000
vt 0.876953 0.500000
vt 0.876953 0.500000
vt 0.876953 0.500000
vt 0.876953 0.500000
vt 0.876953 0.500000
vt 0.876953 0.500000
vt 0.876953 0.500000
vt 0.876953 0.500000
vt 0.876953 0.500000
vt 0.845703 0.500000
vt 0.845703 0.500000
vt 0.845703 0.500000
vt 0.845703 0.500000
vt 0.853516 0.500000
vt 0.853516 0.500000
vt 0.853516 0.500000
vt 0.853516 0.500000
vt 0.853516 0.500000
vt 0.853516 0.500000
vt 0.853516 0.500000
vt 0.853516 0.500000
vt 0.853516 0.500000
vt 0.853516 0.500000
vt 0.853516 0.500000
vn -1.0000 0.0000 0.0000
vn 1.0000 0.0000 0.0000
vn 0.0000 -0.0000 1.0000
vn 0.0000 0.0000 -1.0000
vn 0.0000 -1.0000 0.0000
vn -0.0000 1.0000 0.0000
usemtl palette
s 1
f 1/1/1 2/2/1 3/3/1
f 4/4/1 2/2/1 1/1/1
f 5/5/1 6/6/1 7/7/1
f 8/8/1 6/6/1 5/5/1
f 9/9/1 10/10/1 11/11/1
f 12/12/1 10/10/1 9/9/1
f 13/13/1 10/10/1 12/12/1
f 14/14/1 13/15/1 12/16/1
f 15/17/1 13/15/1 14/14/1
f 16/18/1 17/19/1 18/20/1
f 19/21/1 17/19/1 16/18/1
f 20/22/2 21/23/2 22/24/2
f 22/24/2 21/23/2 23/25/2
f 24/26/2 25/27/2 26/28/2
f 26/28/2 25/27/2 27/29/2
f 28/30/2 29/31/2 30/32/2
f 29/33/2 31/34/2 32/35/2
f 30/32/2 29/31/2 32/36/2
f 32/35/2 31/34/2 33/37/2
f 30/38/2 32/35/2 34/39/2
f 34/39/2 32/35/2 35/40/2
f 36/41/2 37/42/2 38/43/2
f 38/43/2 37/42/2 39/44/2
f 40/45/3 41/46/3 42/47/3
f 43/48/3 41/46/3 40/45/3
f 44/49/3 45/50/3 46/51/3
f 47/52/3 48/53/3 49/54/3
f 50/55/3 48/53/3 47/52/3
f 51/56/3 44/49/3 46/51/3
f 52/57/3 53/58/3 44/59/3
f 52/60/3 44/49/3 51/56/3
f 54/61/3 53/58/3 52/57/3
f 55/62/3 56/63/3 57/64/3
f 58/65/3 56/63/3 55/62/3
f 59/66/4 60/67/4 61/68/4
f 61/68/4 60/67/4 62/69/4
f 63/70/4 64/71/4 65/72/4
f 64/73/4 66/74/4 67/75/4
f 65/72/4 64/71/4 67/76/4
f 67/75/4 66/74/4 68/77/4
f 69/78/4 70/79/4 71/80/4
f 71/80/4 70/79/4 72/81/4
f 65/82/4 67/75/4 73/83/4
f 73/83/4 67/75/4 74/84/4
f 75/85/4 76/86/4 77/87/4
f 77/87/4 76/86/4 78/88/4
f 79/89/5 80/90/5 81/91/5
f 82/92/5 80/90/5 79/89/5
f 83/93/5 84/94/5 85/95/5
f 86/96/5 84/94/5 83/93/5
f 87/97/5 83/93/5 85/95/5
f 88/98/5 84/94/5 86/96/5
f 89/99/5 87/97/5 85/95/5
f 89/99/5 88/98/5 87/97/5
f 90/100/5 84/94/5 88/98/5
f 90/100/5 88/98/5 89/99/5
f 91/101/6 92/102/6 93/103/6
f 93/103/6 92/102/6 94/104/6
f 94/104/6 92/102/6 95/105/6
f 91/101/6 93/103/6 96/106/6
f 95/105/6 92/102/6 97/107/6
f 96/106/6 98/108/6 99/109/6
f 98/108/6 97/107/6 99/109/6
f 91/101/6 96/106/6 99/109/6
f 97/107/6 92/102/6 100/110/6
f 99/109/6 97/107/6 100/110/6
f 101/111/6 102/112/6 103/113/6
f 103/113/6 102/112/6 104/114/6
f 104/115/6 105/116/6 106/117/6
f 106/117/6 105/116/6 107/118/6
f 108/119/6 109/120/6 110/121/6
f 110/121/6 109/120/6 111/122/6
f 112/123/6 110/121/6 113/124/6
f 113/124/6 110/121/6 114/125/6
