# MagicaVoxel @ Ephtracy

# group
o 

# material
mtllib axis.mtl
usemtl palette

# normals
vn -1 0 0
vn 1 0 0
vn 0 0 1
vn 0 0 -1
vn 0 -1 0
vn 0 1 0

# texcoords
vt 0.0214844 0.5
vt 0.775391 0.5
vt 0.841797 0.5
vt 0.880859 0.5

# verts
v 0 2 0
v 0 2 -0.3
v 0 2 -0.4
v 0 2.1 0
v 0 2.1 -0.3
v 0 2.1 -0.4
v 0 2.4 -0.3
v 0 2.4 -0.4
v 0.1 2 0
v 0.1 2 -0.3
v 0.1 2.1 0
v 0.1 2.1 -0.3
v 0.1 2.1 -0.4
v 0.1 2.4 -0.3
v 0.1 2.4 -0.4
v 0.4 2 -0.3
v 0.4 2 -0.4
v 0.4 2.1 -0.3
v 0.4 2.1 -0.4
v 0 2 0
v 0 2.1 0
v 0.1 2 0
v 0.1 2.1 0
v 0 2.1 -0.3
v 0 2.4 -0.3
v 0.1 2 -0.3
v 0.1 2.1 -0.3
v 0.1 2.4 -0.3
v 0.4 2 -0.3
v 0.4 2.1 -0.3
v 0 2 -0.4
v 0 2.1 -0.4
v 0 2.4 -0.4
v 0.1 2 -0.4
v 0.1 2.1 -0.4
v 0.1 2.4 -0.4
v 0.4 2 -0.4
v 0.4 2.1 -0.4
v 0 2 0
v 0.1 2 0
v 0 2 -0.3
v 0.1 2 -0.3
v 0.4 2 -0.3
v 0 2 -0.4
v 0.1 2 -0.4
v 0.4 2 -0.4
v 0 2.1 0
v 0.1 2.1 0
v 0 2.1 -0.3
v 0.1 2.1 -0.3
v 0.4 2.1 -0.3
v 0.1 2.1 -0.4
v 0.4 2.1 -0.4
v 0 2.4 -0.3
v 0.1 2.4 -0.3
v 0 2.4 -0.4
v 0.1 2.4 -0.4

# faces
f 4/2/1 2/2/1 1/2/1
f 5/1/1 3/1/1 2/1/1
f 5/2/1 2/2/1 4/2/1
f 6/1/1 3/1/1 5/1/1
f 7/4/1 6/4/1 5/4/1
f 8/4/1 6/4/1 7/4/1
f 9/2/2 10/2/2 11/2/2
f 11/2/2 10/2/2 12/2/2
f 12/4/2 13/4/2 14/4/2
f 14/4/2 13/4/2 15/4/2
f 16/3/2 17/3/2 18/3/2
f 18/3/2 17/3/2 19/3/2
f 22/2/3 21/2/3 20/2/3
f 23/2/3 21/2/3 22/2/3
f 27/4/3 25/4/3 24/4/3
f 28/4/3 25/4/3 27/4/3
f 29/3/3 27/3/3 26/3/3
f 30/3/3 27/3/3 29/3/3
f 31/1/4 32/1/4 34/1/4
f 32/4/4 33/4/4 35/4/4
f 34/1/4 32/1/4 35/1/4
f 35/4/4 33/4/4 36/4/4
f 34/3/4 35/3/4 37/3/4
f 37/3/4 35/3/4 38/3/4
f 41/2/5 40/2/5 39/2/5
f 42/2/5 40/2/5 41/2/5
f 44/1/5 42/1/5 41/1/5
f 45/3/5 43/3/5 42/3/5
f 45/1/5 42/1/5 44/1/5
f 46/3/5 43/3/5 45/3/5
f 47/2/6 48/2/6 49/2/6
f 49/2/6 48/2/6 50/2/6
f 50/3/6 51/3/6 52/3/6
f 52/3/6 51/3/6 53/3/6
f 54/4/6 55/4/6 56/4/6
f 56/4/6 55/4/6 57/4/6
