# Blender v2.79 (sub 0) OBJ File: 'standard.blend'
# www.blender.org
mtllib standard.mtl
o Cube.005_Cube.001
v -1.471005 4.398193 0.819343
v -1.471005 6.398193 0.819343
v 1.425712 4.398193 0.819343
v 1.425712 4.398193 -1.074139
v 1.425712 6.398193 -1.074139
v 1.120000 4.383645 -0.561496
v -1.197838 1.727079 0.392780
v 1.120000 2.143645 -0.561496
v -1.114401 1.725379 -0.639610
v 1.117826 1.725589 -0.639338
v 1.115345 1.741497 0.522135
v -2.364595 1.779277 0.162755
v -1.790402 1.581297 -0.383979
v -1.142682 3.459852 -0.383979
v 2.463462 1.860094 -0.382823
v 1.552355 4.143467 -0.383979
v 1.899344 1.635005 0.163912
v 1.135197 3.468919 0.162755
v 1.121175 3.480595 -0.383979
v 1.123695 3.977536 0.168299
v -0.233628 0.040992 0.295300
v -0.233628 0.040992 -0.478223
v 0.203932 0.046481 0.299221
v 0.203932 2.146770 0.299221
v 0.203932 2.146770 -0.474303
v 1.032786 2.141282 0.295300
v 1.032786 0.040992 -0.478223
v 1.032786 2.141282 -0.478223
v -1.471005 4.398193 -1.074139
v -1.471005 6.398193 -1.074139
v 1.425712 6.398193 0.819343
v -1.120000 4.383645 0.391205
v -1.120000 4.383645 -0.561496
v 1.120000 4.383645 0.391205
v -1.120000 2.143645 -0.561496
v -1.196419 1.727176 -0.560922
v -1.120000 2.143645 0.391205
v -1.116882 1.741811 0.522276
v 1.125740 2.146252 0.396748
v 1.209382 1.729653 0.390467
v 1.204884 1.723402 -0.563226
v -2.364595 1.779277 -0.383979
v -1.563233 4.103433 0.162755
v -1.563233 4.103433 -0.383979
v -1.139951 3.957487 -0.383979
v -1.790402 1.581297 0.162755
v -1.142682 3.459852 0.162755
v -1.139951 3.957487 0.162755
v 2.463462 1.860094 0.163912
v 1.552355 4.143467 0.162755
v 1.899328 1.635005 -0.383979
v 1.121325 3.977536 -0.383979
v -1.062483 0.046481 -0.474303
v -1.062483 0.046481 0.281471
v -1.062483 2.146770 0.299221
v -1.062483 2.146770 -0.474303
v -0.233628 2.141282 -0.478223
v -0.233628 2.141282 0.295300
v 0.203932 0.046481 -0.474303
v 1.032786 0.040992 0.295300
v -0.530050 5.686984 0.729052
v -0.530050 5.686984 0.829052
v -0.491032 5.683141 0.729052
v -0.491031 5.683141 0.829052
v -0.453513 5.671760 0.729052
v -0.453513 5.671760 0.829052
v -0.418936 5.653278 0.729052
v -0.418936 5.653278 0.829052
v -0.388628 5.628405 0.729052
v -0.388628 5.628405 0.829052
v -0.363756 5.598098 0.729052
v -0.363756 5.598098 0.829052
v -0.345274 5.563520 0.729052
v -0.345274 5.563520 0.829052
v -0.333892 5.526002 0.729052
v -0.333892 5.526002 0.829052
v -0.330050 5.486984 0.729052
v -0.330050 5.486984 0.829052
v -0.333892 5.447966 0.729052
v -0.333892 5.447966 0.829052
v -0.345274 5.410447 0.729052
v -0.345274 5.410447 0.829052
v -0.363756 5.375870 0.729052
v -0.363756 5.375870 0.829052
v -0.388628 5.345562 0.729052
v -0.388628 5.345562 0.829052
v -0.418936 5.320690 0.729052
v -0.418936 5.320690 0.829052
v -0.453513 5.302208 0.729052
v -0.453513 5.302208 0.829052
v -0.491032 5.290827 0.729052
v -0.491032 5.290827 0.829052
v -0.530050 5.286983 0.729052
v -0.530050 5.286983 0.829052
v -0.569068 5.290827 0.729052
v -0.569068 5.290827 0.829052
v -0.606586 5.302208 0.729052
v -0.606586 5.302208 0.829052
v -0.641164 5.320690 0.729052
v -0.641164 5.320690 0.829052
v -0.671471 5.345562 0.729052
v -0.671471 5.345562 0.829052
v -0.696344 5.375870 0.729052
v -0.696344 5.375870 0.829052
v -0.714826 5.410447 0.729052
v -0.714826 5.410447 0.829052
v -0.726207 5.447966 0.729052
v -0.726207 5.447966 0.829052
v -0.730050 5.486984 0.729052
v -0.730050 5.486984 0.829052
v -0.726207 5.526002 0.729052
v -0.726207 5.526002 0.829052
v -0.714825 5.563520 0.729052
v -0.714825 5.563520 0.829052
v -0.696343 5.598098 0.729052
v -0.696343 5.598098 0.829052
v -0.671471 5.628406 0.729052
v -0.671471 5.628406 0.829052
v -0.641163 5.653278 0.729052
v -0.641163 5.653278 0.829052
v -0.606586 5.671760 0.729052
v -0.606586 5.671760 0.829052
v -0.569067 5.683141 0.729052
v -0.569067 5.683141 0.829052
v 0.032173 5.067517 0.828625
v 0.032173 5.068006 0.557132
v -0.164644 4.888860 0.837127
v -0.164644 4.889348 0.565634
v 0.224003 4.891162 0.837127
v 0.224003 4.891651 0.565634
v 0.538922 5.345562 0.726514
v 0.643383 5.686984 0.729052
v 0.643383 5.686984 0.829052
v 0.682401 5.683141 0.729052
v 0.682401 5.683141 0.829052
v 0.719920 5.671760 0.729052
v 0.719920 5.671760 0.829052
v 0.754497 5.653278 0.729052
v 0.754497 5.653278 0.829052
v 0.784804 5.628405 0.729052
v 0.784804 5.628405 0.829052
v 0.809677 5.598098 0.729052
v 0.809677 5.598098 0.829052
v 0.828159 5.563520 0.729052
v 0.828159 5.563520 0.829052
v 0.839540 5.526002 0.729052
v 0.839540 5.526002 0.829052
v 0.843383 5.486984 0.729052
v 0.843383 5.486984 0.829052
v 0.839540 5.447966 0.729052
v 0.839540 5.447966 0.829052
v 0.828159 5.410447 0.729052
v 0.828159 5.410447 0.829052
v 0.809677 5.375870 0.729052
v 0.809677 5.375870 0.829052
v 0.784804 5.345562 0.729052
v 0.784805 5.345562 0.829052
v 0.754497 5.320690 0.729052
v 0.754497 5.320690 0.829052
v 0.719920 5.302208 0.729052
v 0.719920 5.302208 0.829052
v 0.682401 5.290827 0.729052
v 0.682401 5.290827 0.829052
v 0.643383 5.286983 0.729052
v 0.643383 5.286983 0.829052
v 0.604365 5.290827 0.729052
v 0.604365 5.290827 0.829052
v 0.566846 5.302208 0.729052
v 0.566846 5.302208 0.829052
v 0.532269 5.320690 0.729052
v 0.532269 5.320690 0.829052
v 0.501962 5.345562 0.729052
v 0.501962 5.345562 0.829052
v 0.477089 5.375870 0.729052
v 0.477089 5.375870 0.829052
v 0.458607 5.410447 0.729052
v 0.458607 5.410447 0.829052
v 0.447226 5.447966 0.729052
v 0.447226 5.447966 0.829052
v 0.443383 5.486984 0.729052
v 0.443383 5.486984 0.829052
v 0.447226 5.526002 0.729052
v 0.447226 5.526002 0.829052
v 0.458607 5.563520 0.729052
v 0.458607 5.563520 0.829052
v 0.477089 5.598098 0.729052
v 0.477089 5.598098 0.829052
v 0.501962 5.628406 0.729052
v 0.501962 5.628406 0.829052
v 0.532269 5.653278 0.729052
v 0.532269 5.653278 0.829052
v 0.566847 5.671760 0.729052
v 0.566847 5.671760 0.829052
v 0.604365 5.683141 0.729052
v 0.604365 5.683141 0.829052
vt 0.238774 0.115247
vt 0.066486 0.112799
vt 0.240374 0.002629
vt 0.068086 0.000180
vt 0.963477 0.144927
vt 0.959860 0.257499
vt 0.844573 0.141106
vt 0.840955 0.253678
vt 0.064795 0.231753
vt 0.237083 0.234201
vt 0.847754 0.028159
vt 0.966658 0.031980
vt 0.963041 0.144552
vt 0.844136 0.140731
vt 0.828578 0.058052
vt 0.544397 0.192543
vt 0.544397 0.311509
vt 0.372092 0.311509
vt 0.372092 0.192543
vt 0.526213 0.167061
vt 0.392971 0.167061
vt 0.822869 0.165889
vt 0.821049 0.222529
vt 0.085239 0.262552
vt 0.218467 0.264445
vt 0.826758 0.114692
vt 0.526554 0.033974
vt 0.392970 0.033819
vt 0.379330 0.141712
vt 0.379312 0.112110
vt 0.797068 0.178656
vt 0.796024 0.211160
vt 0.074254 0.287747
vt 0.083345 0.395780
vt 0.073810 0.317346
vt 0.354110 0.150270
vt 0.341331 0.000180
vt 0.307119 0.011790
vt 0.770449 0.177800
vt 0.769405 0.210305
vt 0.624290 0.173104
vt 0.623245 0.205608
vt 0.049158 0.278827
vt 0.034223 0.428721
vt 0.000180 0.416621
vt 0.475247 0.058572
vt 0.475295 0.091112
vt 0.395501 0.049831
vt 0.396953 0.106813
vt 0.468999 0.200652
vt 0.390397 0.208691
vt 0.470043 0.168147
vt 0.392217 0.152051
vt 0.587136 0.204448
vt 0.588180 0.171943
vt 0.804095 0.067830
vt 0.803039 0.100665
vt 0.539594 0.142971
vt 0.540128 0.112712
vt 0.216574 0.397673
vt 0.228682 0.288749
vt 0.228262 0.318306
vt 0.254456 0.279237
vt 0.273018 0.428722
vt 0.306758 0.415800
vt 0.776633 0.067057
vt 0.775717 0.099565
vt 0.630454 0.063009
vt 0.629538 0.095518
vt 0.565145 0.152710
vt 0.585027 0.003396
vt 0.618650 0.016615
vt 0.594341 0.061924
vt 0.593424 0.094501
vt 0.440231 0.337164
vt 0.307452 0.337180
vt 0.440361 0.311870
vt 0.307119 0.311870
vt 0.480102 0.419882
vt 0.454915 0.363109
vt 0.480123 0.363212
vt 0.454915 0.419839
vt 0.307119 0.362749
vt 0.307294 0.337607
vt 0.440074 0.337540
vt 0.440703 0.362745
vt 0.364362 0.384758
vt 0.307119 0.410030
vt 0.307631 0.384758
vt 0.364119 0.410259
vt 0.554423 0.429082
vt 0.000180 0.429082
vt 0.405189 0.026107
vt 0.285369 0.026236
vt 0.079240 0.103701
vt 0.025687 0.043684
vt 0.080272 0.113768
vt 0.034920 0.046798
vt 0.322902 0.100934
vt 0.161926 0.029386
vt 0.199775 0.103881
vt 0.631198 0.128109
vt 0.064738 0.126923
vt 0.451822 0.082688
vt 0.406551 0.014756
vt 0.464747 0.084497
vt 0.358955 0.055959
vt 0.362393 0.062383
vt 0.374398 0.060504
vt 0.370735 0.054930
vt 0.124484 0.067045
vt 0.127793 0.073422
vt 0.115951 0.074262
vt 0.112349 0.068927
vt 0.057958 0.925454
vt 0.072284 0.946895
vt 0.056861 0.928102
vt 0.062668 0.963908
vt 0.058239 0.968217
vt 0.057124 0.965605
vt 0.062278 0.962237
vt 0.056529 0.962829
vt 0.056302 0.930913
vt 0.056302 0.933779
vt 0.056861 0.936590
vt 0.057958 0.939237
vt 0.063130 0.957291
vt 0.056999 0.957200
vt 0.058055 0.954563
vt 0.064052 0.955868
vt 0.059613 0.952184
vt 0.065243 0.954656
vt 0.059550 0.941621
vt 0.061577 0.943647
vt 0.061612 0.950157
vt 0.066656 0.953694
vt 0.063975 0.948560
vt 0.068234 0.953030
vt 0.063960 0.945239
vt 0.066607 0.946336
vt 0.066612 0.947458
vt 0.069916 0.952687
vt 0.069418 0.946895
vt 0.071636 0.952682
vt 0.073328 0.953013
vt 0.075097 0.947458
vt 0.074926 0.953670
vt 0.062224 0.960538
vt 0.056485 0.959992
vt 0.062512 0.958868
vt 0.059550 0.923071
vt 0.059827 0.970574
vt 0.063385 0.965482
vt 0.064356 0.966935
vt 0.061831 0.972591
vt 0.061577 0.921045
vt 0.063960 0.919453
vt 0.064184 0.974188
vt 0.065579 0.968168
vt 0.067010 0.969136
vt 0.066801 0.975300
vt 0.066607 0.918356
vt 0.069418 0.917797
vt 0.069584 0.975881
vt 0.068594 0.969805
vt 0.070271 0.970149
vt 0.072426 0.975906
vt 0.072284 0.917797
vt 0.075095 0.918356
vt 0.075215 0.975372
vt 0.071979 0.970156
vt 0.073645 0.969831
vt 0.077843 0.974301
vt 0.077743 0.919453
vt 0.080126 0.921045
vt 0.080208 0.972730
vt 0.075206 0.969182
vt 0.076604 0.968234
vt 0.082217 0.970720
vt 0.082152 0.923072
vt 0.083745 0.925454
vt 0.083791 0.968350
vt 0.077784 0.967022
vt 0.078703 0.965595
vt 0.084870 0.965712
vt 0.084841 0.928102
vt 0.085400 0.930913
vt 0.085414 0.962910
vt 0.079322 0.964005
vt 0.079617 0.962314
vt 0.085407 0.960050
vt 0.085400 0.933779
vt 0.084841 0.936590
vt 0.084846 0.957240
vt 0.079599 0.960580
vt 0.079246 0.958882
vt 0.083751 0.954589
vt 0.083744 0.939238
vt 0.082152 0.941621
vt 0.082160 0.952199
vt 0.078571 0.957284
vt 0.077599 0.955847
vt 0.080133 0.950163
vt 0.080126 0.943647
vt 0.077743 0.945239
vt 0.077748 0.948562
vt 0.076369 0.954627
vt 0.075095 0.946336
vt 0.142137 0.953940
vt 0.148227 0.945235
vt 0.142616 0.966335
vt 0.135788 0.961051
vt 0.125371 0.966523
vt 0.126347 0.947815
vt 0.139766 0.962653
vt 0.028492 0.925456
vt 0.042821 0.946903
vt 0.027395 0.928105
vt 0.032983 0.964115
vt 0.028491 0.968379
vt 0.027395 0.965735
vt 0.032640 0.962426
vt 0.026835 0.962926
vt 0.026835 0.930916
vt 0.026835 0.933783
vt 0.027394 0.936595
vt 0.028491 0.939243
vt 0.033610 0.957397
vt 0.027393 0.957244
vt 0.028489 0.954590
vt 0.034560 0.955950
vt 0.030081 0.952201
vt 0.035771 0.954715
vt 0.030084 0.941627
vt 0.032111 0.943654
vt 0.032108 0.950167
vt 0.037198 0.953739
vt 0.034493 0.948568
vt 0.038785 0.953061
vt 0.034495 0.945247
vt 0.037143 0.946344
vt 0.037142 0.947465
vt 0.040471 0.952705
vt 0.039955 0.946903
vt 0.042190 0.952686
vt 0.043876 0.953004
vt 0.045629 0.947466
vt 0.045462 0.953645
vt 0.032632 0.960699
vt 0.026834 0.960058
vt 0.032959 0.959001
vt 0.030084 0.923073
vt 0.030083 0.970754
vt 0.033647 0.965702
vt 0.034607 0.967124
vt 0.032107 0.972767
vt 0.032111 0.921046
vt 0.034495 0.919453
vt 0.034484 0.974341
vt 0.035823 0.968328
vt 0.037249 0.969268
vt 0.037121 0.975413
vt 0.037143 0.918356
vt 0.039955 0.917797
vt 0.039913 0.975944
vt 0.038829 0.969906
vt 0.040498 0.970218
vt 0.042751 0.975912
vt 0.042822 0.917797
vt 0.045633 0.918356
vt 0.045522 0.975322
vt 0.042193 0.970191
vt 0.043847 0.969826
vt 0.048119 0.974200
vt 0.048282 0.919453
vt 0.050665 0.921046
vt 0.050445 0.972594
vt 0.045395 0.969136
vt 0.046777 0.968149
vt 0.052417 0.970573
vt 0.052692 0.923073
vt 0.054285 0.925457
vt 0.053971 0.968219
vt 0.047954 0.966895
vt 0.048876 0.965413
vt 0.055071 0.965623
vt 0.055382 0.928105
vt 0.055941 0.930917
vt 0.055674 0.962863
vt 0.049594 0.963823
vt 0.049967 0.962146
vt 0.055733 0.960032
vt 0.055941 0.933783
vt 0.055382 0.936595
vt 0.055232 0.957238
vt 0.049995 0.960442
vt 0.049681 0.958773
vt 0.054185 0.954594
vt 0.054285 0.939244
vt 0.052692 0.941627
vt 0.052632 0.952207
vt 0.049039 0.957200
vt 0.048095 0.955786
vt 0.050633 0.950171
vt 0.050665 0.943654
vt 0.048281 0.945247
vt 0.048267 0.948570
vt 0.046887 0.954585
vt 0.045633 0.946344
vn 0.0000 1.0000 0.0000
vn -1.0000 0.0000 0.0000
vn 0.0000 0.0000 -1.0000
vn 1.0000 0.0000 0.0000
vn 0.0475 -0.9989 0.0000
vn 0.0000 0.0000 1.0000
vn 0.0000 -0.9994 0.0340
vn -0.0414 -0.9991 0.0000
vn 0.0000 -0.9996 -0.0284
vn 0.0000 0.0025 1.0000
vn -0.0025 0.0000 1.0000
vn -0.9962 0.0000 0.0870
vn -0.9915 0.0054 0.1298
vn -0.9989 0.0468 0.0000
vn -0.9937 0.0000 -0.1117
vn -0.9861 0.0054 -0.1661
vn -0.9454 0.3260 0.0000
vn 0.9997 0.0025 -0.0256
vn 0.9999 -0.0082 -0.0060
vn -0.9999 -0.0172 0.0000
vn 0.3260 0.9454 0.0000
vn -0.3260 -0.9454 0.0000
vn 1.0000 0.0033 0.0000
vn 0.9999 0.0115 -0.0043
vn 0.9999 0.0026 0.0118
vn 0.9875 0.0206 0.1565
vn 1.0000 0.0000 -0.0075
vn 1.0000 -0.0003 -0.0043
vn 0.0019 0.0003 -1.0000
vn 0.9288 0.3706 0.0000
vn -0.0002 0.0004 1.0000
vn -0.0006 0.0004 1.0000
vn 0.0170 -0.0105 0.9998
vn -0.3610 0.9326 0.0015
vn -0.3593 0.9332 0.0000
vn 0.3706 -0.9288 -0.0000
vn -0.9214 -0.3885 0.0000
vn -0.9230 -0.3846 0.0155
vn 0.0001 0.1831 -0.9831
vn 0.0000 0.1836 -0.9830
vn -0.9830 0.1837 0.0000
vn -0.9836 0.1805 -0.0014
vn 0.0001 0.3101 0.9507
vn -0.0027 0.2960 0.9552
vn 0.9804 0.1969 -0.0059
vn 0.9802 0.1980 -0.0064
vn 0.0000 0.9996 0.0284
vn 0.0060 0.9920 -0.1262
vn -0.0543 0.9985 0.0000
vn 0.0125 -0.9999 0.0000
vn -0.0012 0.9994 0.0332
vn 0.0060 0.9917 -0.1284
vn -0.0136 0.9909 0.1341
vn 0.0064 0.9985 -0.0547
vn -0.0271 0.9996 0.0000
vn -0.0508 0.9987 -0.0024
vn -0.0139 0.9843 0.1761
vn 0.0064 0.9992 -0.0400
vn 0.0047 0.0000 1.0000
vn 0.0066 1.0000 0.0000
vn -0.0167 -0.0084 0.9998
vn -0.0047 0.0000 -1.0000
vn -0.7730 -0.6344 0.0000
vn -0.8819 -0.4714 0.0000
vn -0.9952 0.0980 0.0000
vn -0.9569 0.2903 0.0000
vn -0.8819 0.4714 0.0000
vn -0.7730 0.6344 0.0000
vn -0.6344 0.7730 0.0000
vn -0.4714 0.8819 0.0000
vn -0.2903 0.9569 0.0000
vn -0.0980 0.9952 0.0000
vn 0.0980 0.9952 0.0000
vn -0.9569 -0.2903 0.0000
vn -0.9952 -0.0980 0.0000
vn -0.6344 -0.7730 0.0000
vn -0.4714 -0.8819 0.0000
vn -0.2903 -0.9569 0.0000
vn -0.0980 -0.9952 0.0000
vn 0.0980 -0.9952 0.0000
vn 0.2903 -0.9569 0.0000
vn 0.4714 -0.8819 0.0000
vn 0.6344 -0.7730 0.0000
vn 0.7730 -0.6344 0.0000
vn 0.8819 -0.4714 0.0000
vn 0.9569 -0.2903 0.0000
vn 0.9952 -0.0980 0.0000
vn 0.9952 0.0980 0.0000
vn 0.9569 0.2903 0.0000
vn 0.8819 0.4714 0.0000
vn 0.7730 0.6344 0.0000
vn 0.6344 0.7730 0.0000
vn 0.4714 0.8819 0.0000
vn 0.2903 0.9569 0.0000
vn 0.0059 -1.0000 -0.0018
vn 0.6768 0.7362 0.0013
vn -0.6721 0.7405 0.0013
vn -0.0003 0.0478 0.9989
vn 0.0003 -0.0478 -0.9989
usemtl None
s off
f 5/1/1 30/2/1 31/3/1
f 2/4/1 31/3/1 30/2/1
f 2/5/2 30/6/2 1/7/2
f 30/6/2 29/8/2 1/7/2
f 29/9/3 30/2/3 5/1/3
f 4/10/3 29/9/3 5/1/3
f 4/11/4 5/12/4 31/13/4
f 3/14/4 4/11/4 31/13/4
f 4/11/5 3/14/5 6/15/5
f 3/16/6 31/17/6 2/18/6
f 2/18/6 1/19/6 3/16/6
f 3/16/7 1/19/7 34/20/7
f 34/20/7 1/19/7 32/21/7
f 1/7/8 29/8/8 32/22/8
f 32/22/8 29/8/8 33/23/8
f 29/9/9 4/10/9 33/24/9
f 6/25/9 33/24/9 4/10/9
f 6/15/5 3/14/5 34/26/5
f 32/21/10 39/27/10 34/20/10
f 39/27/11 32/21/11 37/28/11
f 32/21/12 48/29/12 37/28/12
f 47/30/13 37/28/13 48/29/13
f 33/23/14 48/31/14 32/22/14
f 45/32/14 48/31/14 33/23/14
f 45/33/15 33/24/15 35/34/15
f 45/33/16 35/34/16 14/35/16
f 48/29/6 43/36/6 47/30/6
f 47/30/6 43/36/6 46/37/6
f 43/36/6 12/38/6 46/37/6
f 43/39/17 44/40/17 12/41/17
f 44/40/17 42/42/17 12/41/17
f 44/43/3 13/44/3 42/45/3
f 13/44/3 44/43/3 14/35/3
f 44/43/3 45/33/3 14/35/3
f 19/46/18 18/47/18 8/48/18
f 8/48/19 18/47/19 39/49/19
f 14/50/20 35/51/20 47/52/20
f 37/53/20 47/52/20 35/51/20
f 48/31/21 45/32/21 43/39/21
f 44/40/21 43/39/21 45/32/21
f 13/54/22 46/55/22 42/42/22
f 12/41/22 42/42/22 46/55/22
f 47/52/17 13/54/17 46/55/17
f 13/54/17 47/52/17 14/50/17
f 34/26/23 52/56/23 6/15/23
f 52/56/24 34/26/24 20/57/24
f 39/27/25 20/58/25 34/20/25
f 18/59/26 20/58/26 39/27/26
f 8/60/27 6/25/27 52/61/27
f 19/62/28 8/60/28 52/61/28
f 52/61/3 16/63/3 19/62/3
f 19/62/3 16/63/3 51/64/3
f 15/65/29 51/64/29 16/63/29
f 16/66/30 50/67/30 15/68/30
f 49/69/30 15/68/30 50/67/30
f 50/70/31 17/71/31 49/72/31
f 17/71/32 50/70/32 18/59/32
f 20/58/33 18/59/33 50/70/33
f 20/57/34 50/67/34 52/56/34
f 16/66/35 52/56/35 50/67/35
f 51/73/36 15/68/36 17/74/36
f 49/69/36 17/74/36 15/68/36
f 19/46/37 51/73/37 17/74/37
f 19/46/38 17/74/38 18/47/38
f 35/34/3 33/24/3 6/25/3
f 8/60/3 35/34/3 6/25/3
f 10/75/39 9/76/39 8/77/39
f 35/78/40 8/77/40 9/76/40
f 35/79/41 7/80/41 37/81/41
f 35/79/42 36/82/42 7/80/42
f 37/83/43 38/84/43 11/85/43
f 39/86/44 37/83/44 11/85/44
f 41/87/45 39/88/45 40/89/45
f 8/90/46 39/88/46 41/87/46
f 8/91/47 35/92/47 28/93/47
f 28/93/48 35/92/48 25/94/48
f 55/95/49 35/96/49 37/97/49
f 55/95/49 56/98/49 35/96/49
f 25/94/50 24/99/50 57/100/50
f 57/100/50 24/99/50 58/101/50
f 39/102/51 55/95/51 37/103/51
f 58/101/52 55/95/52 39/102/52
f 58/101/53 39/102/53 24/99/53
f 26/104/54 24/99/54 39/102/54
f 28/93/55 26/104/55 8/105/55
f 26/104/56 39/106/56 8/105/56
f 57/100/57 25/94/57 35/92/57
f 56/98/58 57/100/58 35/92/58
f 59/107/2 23/108/2 25/94/2
f 24/99/2 25/94/2 23/108/2
f 24/99/59 23/108/59 26/104/59
f 26/104/59 23/108/59 60/109/59
f 26/104/4 60/109/4 28/93/4
f 27/110/4 28/93/4 60/109/4
f 27/110/60 59/107/60 60/109/60
f 23/108/60 60/109/60 59/107/60
f 58/101/4 22/111/4 57/100/4
f 21/112/4 22/111/4 58/101/4
f 55/95/59 21/112/59 58/101/59
f 55/95/61 54/113/61 21/112/61
f 55/95/2 56/98/2 54/113/2
f 53/114/2 54/113/2 56/98/2
f 56/98/62 22/111/62 53/114/62
f 56/98/62 57/100/62 22/111/62
f 21/112/60 22/111/60 54/113/60
f 53/114/60 54/113/60 22/111/60
f 59/107/62 25/94/62 27/110/62
f 28/93/62 27/110/62 25/94/62
f 102/115/6 124/116/6 104/117/6
f 103/118/63 102/119/63 104/120/63
f 105/121/64 103/118/64 104/120/64
f 104/120/64 106/122/64 105/121/64
f 124/116/6 106/123/6 104/117/6
f 124/116/6 108/124/6 106/123/6
f 124/116/6 110/125/6 108/124/6
f 110/125/6 124/116/6 112/126/6
f 111/127/65 110/128/65 112/129/65
f 113/130/66 111/127/66 112/129/66
f 113/130/67 114/131/67 115/132/67
f 112/129/66 114/131/66 113/130/66
f 124/116/6 114/133/6 112/126/6
f 114/133/6 124/116/6 116/134/6
f 115/132/67 114/131/67 116/135/67
f 117/136/68 115/132/68 116/135/68
f 117/136/69 118/137/69 119/138/69
f 116/135/68 118/137/68 117/136/68
f 124/116/6 118/139/6 116/134/6
f 118/139/6 124/116/6 120/140/6
f 119/138/69 118/137/69 120/141/69
f 121/142/70 119/138/70 120/141/70
f 121/142/71 122/143/71 123/144/71
f 120/141/70 122/143/70 121/142/70
f 124/116/6 122/143/6 120/140/6
f 123/144/71 122/143/71 124/116/71
f 61/145/72 123/144/72 124/116/72
f 124/116/72 62/146/72 61/145/72
f 63/147/73 61/145/73 62/146/73
f 105/121/74 106/122/74 107/148/74
f 106/122/74 108/149/74 107/148/74
f 107/148/75 108/149/75 109/150/75
f 108/149/75 110/128/75 109/150/75
f 109/150/65 110/128/65 111/127/65
f 124/116/6 102/115/6 100/151/6
f 100/152/76 102/119/76 101/153/76
f 101/153/63 102/119/63 103/118/63
f 101/153/76 99/154/76 100/152/76
f 99/154/77 98/155/77 100/152/77
f 98/156/6 124/116/6 100/151/6
f 124/116/6 98/156/6 96/157/6
f 96/158/78 98/155/78 97/159/78
f 97/159/77 98/155/77 99/154/77
f 97/159/78 95/160/78 96/158/78
f 95/160/79 94/161/79 96/158/79
f 94/162/6 124/116/6 96/157/6
f 124/116/6 94/162/6 92/163/6
f 92/164/80 94/161/80 93/165/80
f 93/165/79 94/161/79 95/160/79
f 93/165/80 91/166/80 92/164/80
f 91/166/81 90/167/81 92/164/81
f 90/168/6 124/116/6 92/163/6
f 124/116/6 90/168/6 88/169/6
f 88/170/82 90/167/82 89/171/82
f 89/171/81 90/167/81 91/166/81
f 89/171/82 87/172/82 88/170/82
f 87/172/83 86/173/83 88/170/83
f 86/174/6 124/116/6 88/169/6
f 124/116/6 86/174/6 84/175/6
f 84/176/84 86/173/84 85/177/84
f 85/177/83 86/173/83 87/172/83
f 85/177/84 83/178/84 84/176/84
f 83/178/85 82/179/85 84/176/85
f 82/180/6 124/116/6 84/175/6
f 124/116/6 82/180/6 80/181/6
f 80/182/86 82/179/86 81/183/86
f 81/183/85 82/179/85 83/178/85
f 81/183/86 79/184/86 80/182/86
f 79/184/87 78/185/87 80/182/87
f 78/186/6 124/116/6 80/181/6
f 124/116/6 78/186/6 76/187/6
f 76/188/88 78/185/88 77/189/88
f 77/189/87 78/185/87 79/184/87
f 77/189/88 75/190/88 76/188/88
f 75/190/89 74/191/89 76/188/89
f 74/192/6 124/116/6 76/187/6
f 124/116/6 74/192/6 72/193/6
f 72/194/90 74/191/90 73/195/90
f 73/195/89 74/191/89 75/190/89
f 73/195/90 71/196/90 72/194/90
f 71/196/91 70/197/91 72/194/91
f 70/198/6 124/116/6 72/193/6
f 124/116/6 70/198/6 68/199/6
f 68/200/92 70/197/92 69/201/92
f 69/201/91 70/197/91 71/196/91
f 69/201/92 67/202/92 68/200/92
f 67/202/93 66/203/93 68/200/93
f 66/204/6 124/116/6 68/199/6
f 124/116/6 66/204/6 64/205/6
f 64/206/94 66/203/94 65/207/94
f 65/207/93 66/203/93 67/202/93
f 65/207/94 63/147/94 64/206/94
f 63/147/73 62/146/73 64/206/73
f 62/208/6 124/116/6 64/205/6
f 130/209/95 129/210/95 127/211/95
f 126/212/96 129/210/96 130/209/96
f 126/212/96 125/213/96 129/210/96
f 127/211/97 125/213/97 126/212/97
f 127/214/98 129/210/98 125/213/98
f 127/211/95 128/215/95 130/209/95
f 128/215/99 126/212/99 130/209/99
f 128/215/97 127/211/97 126/212/97
f 173/216/6 195/217/6 175/218/6
f 174/219/63 173/220/63 175/221/63
f 176/222/64 174/219/64 175/221/64
f 175/221/64 177/223/64 176/222/64
f 195/217/6 177/224/6 175/218/6
f 195/217/6 179/225/6 177/224/6
f 195/217/6 181/226/6 179/225/6
f 181/226/6 195/217/6 183/227/6
f 182/228/65 181/229/65 183/230/65
f 184/231/66 182/228/66 183/230/66
f 184/231/67 185/232/67 186/233/67
f 183/230/66 185/232/66 184/231/66
f 195/217/6 185/234/6 183/227/6
f 185/234/6 195/217/6 187/235/6
f 186/233/67 185/232/67 187/236/67
f 188/237/68 186/233/68 187/236/68
f 188/237/69 189/238/69 190/239/69
f 187/236/68 189/238/68 188/237/68
f 195/217/6 189/240/6 187/235/6
f 189/240/6 195/217/6 191/241/6
f 190/239/69 189/238/69 191/242/69
f 192/243/70 190/239/70 191/242/70
f 192/243/71 193/244/71 194/245/71
f 191/242/70 193/244/70 192/243/70
f 195/217/6 193/244/6 191/241/6
f 194/245/71 193/244/71 195/217/71
f 132/246/72 194/245/72 195/217/72
f 195/217/72 133/247/72 132/246/72
f 134/248/73 132/246/73 133/247/73
f 176/222/74 177/223/74 178/249/74
f 177/223/74 179/250/74 178/249/74
f 178/249/75 179/250/75 180/251/75
f 179/250/75 181/229/75 180/251/75
f 180/251/65 181/229/65 182/228/65
f 195/217/6 173/216/6 171/252/6
f 171/253/76 173/220/76 172/254/76
f 172/254/63 173/220/63 174/219/63
f 172/254/76 170/255/76 171/253/76
f 170/255/77 169/256/77 171/253/77
f 169/257/6 195/217/6 171/252/6
f 195/217/6 169/257/6 167/258/6
f 167/259/78 169/256/78 168/260/78
f 168/260/77 169/256/77 170/255/77
f 168/260/78 166/261/78 167/259/78
f 166/261/79 165/262/79 167/259/79
f 165/263/6 195/217/6 167/258/6
f 195/217/6 165/263/6 163/264/6
f 163/265/80 165/262/80 164/266/80
f 164/266/79 165/262/79 166/261/79
f 164/266/80 162/267/80 163/265/80
f 162/267/81 161/268/81 163/265/81
f 161/269/6 195/217/6 163/264/6
f 195/217/6 161/269/6 159/270/6
f 159/271/82 161/268/82 160/272/82
f 160/272/81 161/268/81 162/267/81
f 160/272/82 158/273/82 159/271/82
f 158/273/83 157/274/83 159/271/83
f 157/275/6 195/217/6 159/270/6
f 195/217/6 157/275/6 155/276/6
f 155/277/84 157/274/84 156/278/84
f 156/278/83 157/274/83 158/273/83
f 156/278/84 154/279/84 155/277/84
f 154/279/85 153/280/85 155/277/85
f 153/281/6 195/217/6 155/276/6
f 195/217/6 153/281/6 151/282/6
f 151/283/86 153/280/86 152/284/86
f 152/284/85 153/280/85 154/279/85
f 152/284/86 150/285/86 151/283/86
f 150/285/87 149/286/87 151/283/87
f 149/287/6 195/217/6 151/282/6
f 195/217/6 149/287/6 147/288/6
f 147/289/88 149/286/88 148/290/88
f 148/290/87 149/286/87 150/285/87
f 148/290/88 146/291/88 147/289/88
f 146/291/89 145/292/89 147/289/89
f 145/293/6 195/217/6 147/288/6
f 195/217/6 145/293/6 143/294/6
f 143/295/90 145/292/90 144/296/90
f 144/296/89 145/292/89 146/291/89
f 144/296/90 142/297/90 143/295/90
f 142/297/91 141/298/91 143/295/91
f 141/299/6 195/217/6 143/294/6
f 195/217/6 141/299/6 139/300/6
f 139/301/92 141/298/92 140/302/92
f 140/302/91 141/298/91 142/297/91
f 140/302/92 138/303/92 139/301/92
f 138/303/93 137/304/93 139/301/93
f 137/305/6 195/217/6 139/300/6
f 195/217/6 137/305/6 135/306/6
f 135/307/94 137/304/94 136/308/94
f 136/308/93 137/304/93 138/303/93
f 136/308/94 134/248/94 135/307/94
f 134/248/73 133/247/73 135/307/73
f 133/309/6 195/217/6 135/306/6
l 18 52
l 26 55
l 28 56
