# Blender v2.79 (sub 0) OBJ File: ''
# www.blender.org
o Cube
v 9.000000 0.250000 -9.000000
v 9.505664 -0.250000 -9.381706
v -9.738171 -0.250000 -9.389686
v -8.999997 0.250000 -9.000000
v 9.000004 0.249999 9.000000
v 9.599021 -0.250001 9.467874
v -9.725605 -0.250000 9.543302
v -8.999999 0.250000 9.000000
vt 1.000000 0.000000
vt 0.000000 1.000000
vt 0.000000 0.000000
vt 1.000000 0.000000
vt 0.000000 1.000000
vt 0.000000 0.000000
vt 1.000000 0.000000
vt 0.000000 1.000000
vt 0.000000 0.000000
vt 1.000000 1.000000
vt 0.000000 1.000000
vt 0.000000 0.000000
vt 1.000000 1.000000
vt 1.000000 0.000000
vt 0.000000 1.000000
vt 1.000000 1.000000
vt 1.000000 1.000000
vt 1.000000 0.000000
vt 1.000000 0.000000
vt 1.000000 1.000000
vn 0.0000 0.6068 -0.7949
vn -0.0000 0.6833 0.7302
vn 0.7031 0.7111 -0.0000
vn -0.0000 -1.0000 -0.0000
vn -0.5608 0.8279 -0.0000
vn 0.0000 1.0000 0.0000
vn 0.0003 0.6144 -0.7890
vn 0.0027 0.7341 0.6791
vn 0.6423 0.7665 -0.0032
vn -0.5672 0.8236 0.0004
s off
f 2/1/1 4/2/1 1/3/1
f 8/4/2 6/5/2 5/6/2
f 5/7/3 2/8/3 1/3/3
f 2/9/4 7/10/4 3/11/4
f 3/12/5 8/13/5 4/2/5
f 1/14/6 8/15/6 5/6/6
f 2/1/7 3/16/7 4/2/7
f 8/4/8 7/10/8 6/5/8
f 5/7/9 6/17/9 2/8/9
f 2/9/4 6/18/4 7/10/4
f 3/12/10 7/19/10 8/13/10
f 1/14/6 4/20/6 8/15/6
